<svg width="79" height="36" viewBox="0 0 79 36" fill="none" xmlns="http://www.w3.org/2000/svg">
<path d="M2.77367 27V6.06H16.5737V9.57H6.73367V14.64H15.4337V18.15H6.73367V23.49H16.5737V27H2.77367ZM19.862 6.06H27.482C28.842 6.06 30.072 6.28 31.172 6.72C32.292 7.16 33.242 7.82 34.022 8.7C34.822 9.56 35.432 10.65 35.852 11.97C36.292 13.27 36.512 14.79 36.512 16.53C36.512 18.27 36.292 19.8 35.852 21.12C35.432 22.42 34.822 23.51 34.022 24.39C33.242 25.25 32.292 25.9 31.172 26.34C30.072 26.78 28.842 27 27.482 27H19.862V6.06ZM27.482 23.49C28.962 23.49 30.132 23.06 30.992 22.2C31.872 21.32 32.312 19.98 32.312 18.18V14.88C32.312 13.08 31.872 11.75 30.992 10.89C30.132 10.01 28.962 9.57 27.482 9.57H23.822V23.49H27.482ZM46.1555 27.36C44.3555 27.36 42.8255 27.04 41.5655 26.4C40.3255 25.76 39.2555 24.92 38.3555 23.88L41.0255 21.3C41.7455 22.14 42.5455 22.78 43.4255 23.22C44.3255 23.66 45.3155 23.88 46.3955 23.88C47.6155 23.88 48.5355 23.62 49.1555 23.1C49.7755 22.56 50.0855 21.84 50.0855 20.94C50.0855 20.24 49.8855 19.67 49.4855 19.23C49.0855 18.79 48.3355 18.47 47.2355 18.27L45.2555 17.97C41.0755 17.31 38.9855 15.28 38.9855 11.88C38.9855 10.94 39.1555 10.09 39.4955 9.33C39.8555 8.57 40.3655 7.92 41.0255 7.38C41.6855 6.84 42.4755 6.43 43.3955 6.15C44.3355 5.85 45.3955 5.7 46.5755 5.7C48.1555 5.7 49.5355 5.96 50.7155 6.48C51.8955 7 52.9055 7.77 53.7455 8.79L51.0455 11.34C50.5255 10.7 49.8955 10.18 49.1555 9.78C48.4155 9.38 47.4855 9.18 46.3655 9.18C45.2255 9.18 44.3655 9.4 43.7855 9.84C43.2255 10.26 42.9455 10.86 42.9455 11.64C42.9455 12.44 43.1755 13.03 43.6355 13.41C44.0955 13.79 44.8355 14.07 45.8555 14.25L47.8055 14.61C49.9255 14.99 51.4855 15.67 52.4855 16.65C53.5055 17.61 54.0155 18.96 54.0155 20.7C54.0155 21.7 53.8355 22.61 53.4755 23.43C53.1355 24.23 52.6255 24.93 51.9455 25.53C51.2855 26.11 50.4655 26.56 49.4855 26.88C48.5255 27.2 47.4155 27.36 46.1555 27.36ZM61.1579 27V18.78L53.9879 6.06H58.4279L63.2579 14.91H63.3179L68.0279 6.06H72.3479L65.1479 18.75V27H61.1579ZM74.1915 27.33C73.3715 27.33 72.7615 27.13 72.3615 26.73C71.9815 26.31 71.7915 25.78 71.7915 25.14V24.6C71.7915 23.96 71.9815 23.43 72.3615 23.01C72.7615 22.59 73.3715 22.38 74.1915 22.38C75.0315 22.38 75.6415 22.59 76.0215 23.01C76.4015 23.43 76.5915 23.96 76.5915 24.6V25.14C76.5915 25.78 76.4015 26.31 76.0215 26.73C75.6415 27.13 75.0315 27.33 74.1915 27.33Z" fill="url(#paint0_linear_121_321)"/>
<defs>
<linearGradient id="paint0_linear_121_321" x1="39.4318" y1="0" x2="39.4318" y2="36" gradientUnits="userSpaceOnUse">
<stop stop-color="#0E34A0"/>
<stop offset="1" stop-color="#275DF8" stop-opacity="0.8"/>
</linearGradient>
</defs>
</svg>
